<svg width="50" height="50" viewBox="0 0 50 50" fill="none" xmlns="http://www.w3.org/2000/svg">
<path fill-rule="evenodd" clip-rule="evenodd" d="M0 10C0 4.47715 4.47715 0 10 0H40C45.5228 0 50 4.47715 50 10V40C50 45.5228 45.5228 50 40 50H10C4.47715 50 0 45.5228 0 40V10ZM32.321 19.713C32.3257 19.555 32.3281 19.3954 32.3281 19.2344V18.0312C32.3281 16.3958 32.0833 14.9167 31.5938 13.5938C31.1042 12.2708 30.401 11.1354 29.4844 10.1875C28.5781 9.23958 27.5 8.51562 26.25 8.01562C25 7.50521 23.6198 7.25 22.1094 7.25H19.2812H17.0156C16.1009 7.25 15.3594 7.99153 15.3594 8.90625V28.25C15.3594 29.2165 16.1429 30 17.1094 30H19.2812H20.7344V41C20.7344 41.5523 21.1821 42 21.7344 42H23.6562C24.2085 42 24.6562 41.5523 24.6562 41V33.2188H29.1267L33.4381 41.4634C33.6106 41.7933 33.9521 42 34.3243 42H37.7441C37.8337 42 37.9062 41.9274 37.9062 41.8379C37.9062 41.811 37.8995 41.7845 37.8867 41.7608L32.7815 32.3153C33.4571 32.0345 34.0612 31.6898 34.5938 31.2812C35.3542 30.6875 35.9427 29.9583 36.3594 29.0938C36.776 28.2292 36.9844 27.2292 36.9844 26.0938C36.9844 24.6042 36.6562 23.3542 36 22.3438C35.3542 21.3229 34.4219 20.5521 33.2031 20.0312C32.9226 19.9114 32.6286 19.8053 32.321 19.713ZM28.3906 19.25C28.3906 19.2448 28.3906 19.2396 28.3906 19.2344V18C28.3906 16.7708 28.25 15.6823 27.9688 14.7344C27.6979 13.7865 27.2917 12.9896 26.75 12.3438C26.2188 11.6979 25.5625 11.2083 24.7812 10.875C24.0104 10.5417 23.1198 10.375 22.1094 10.375H19.2812V26.8906H20.7344V20.25C20.7344 19.6977 21.1821 19.25 21.7344 19.25H28.3906ZM24.6562 26.4101V22.375H27.9928C27.8977 22.708 27.7855 23.0257 27.6562 23.3281C27.1771 24.474 26.4583 25.3542 25.5 25.9688C25.2365 26.1396 24.9552 26.2867 24.6562 26.4101ZM24.6562 29.7216C25.1949 29.6026 25.7106 29.4454 26.2031 29.25C27.474 28.7396 28.5677 28.0156 29.4844 27.0781C30.401 26.1302 31.1042 24.9948 31.5938 23.6719C31.6514 23.5162 31.7056 23.3584 31.7564 23.1984C32.1186 23.4728 32.4029 23.8129 32.6094 24.2188C32.9219 24.8021 33.0781 25.4896 33.0781 26.2812C33.0781 27.0104 32.9167 27.6667 32.5938 28.25C32.2812 28.8229 31.8125 29.276 31.1875 29.6094C30.5625 29.9427 29.7812 30.1094 28.8438 30.1094H24.6562V29.7216Z" fill="#FDFDFD"/>
</svg>
