<svg width="51" height="50" viewBox="0 0 51 50" fill="none" xmlns="http://www.w3.org/2000/svg">
<path fill-rule="evenodd" clip-rule="evenodd" d="M47.5762 2.745C48.7038 4.23309 49.2119 6.6998 49.462 9.6986C49.7929 14.1737 49.9258 19.5438 50.0529 25.0929C50.0154 26.3819 49.9829 27.6733 49.951 28.947V28.9472C49.8427 33.259 49.7395 37.3675 49.462 40.4872C49.1784 43.5893 48.5757 45.6665 47.5693 46.9264C46.2892 48.1844 43.8332 49.2466 40.3314 49.4984C37.187 49.7663 33.4998 49.8343 29.4523 49.9089H29.4523L29.4508 49.909C28.0166 49.9354 26.5371 49.9627 25.0205 50C23.6423 49.9764 22.3589 49.9601 21.148 49.9446L21.1475 49.9446H21.1473C16.6967 49.8879 13.2252 49.8436 9.62101 49.5004C6.04439 49.2525 3.70463 48.2031 2.26492 46.9363C1.19844 45.5062 0.886275 43.9857 0.59085 40.4213C0.277541 36.9291 0.171218 32.3848 0.0607837 27.6649C0.0410549 26.8217 0.0211948 25.9728 0 25.1234C0.0700557 23.2615 0.118141 21.3947 0.16495 19.5774C0.258289 15.9537 0.346549 12.5271 0.593804 9.73008C0.842946 6.41654 1.23586 4.18883 2.24326 2.77254C3.65638 1.56967 6.06704 0.971684 9.66335 0.676623C14.5871 0.101255 19.7137 -0.0118521 25.0136 0.00093384C30.4682 0.00978567 35.7041 0.165184 40.3757 0.624496C43.5269 0.876281 46.1346 1.41821 47.5713 2.745H47.5762ZM9.86794 14L24.5 26.3458L39.1321 14H9.86794ZM40 14.5761L24.5 27.6542L9 14.5761V35H40V14.5761ZM8 13V36H41V13H8Z" fill="#0A030E"/>
</svg>
