<svg width="51" height="50" viewBox="0 0 51 50" fill="none" xmlns="http://www.w3.org/2000/svg">
<path fill-rule="evenodd" clip-rule="evenodd" d="M49.462 9.6986C49.2119 6.6998 48.7038 4.23309 47.5762 2.745H47.5713C46.1346 1.41821 43.5269 0.876281 40.3757 0.624496C35.7041 0.165184 30.4682 0.00978567 25.0136 0.00093384C19.7137 -0.0118521 14.5871 0.101255 9.66335 0.676623C6.06704 0.971684 3.65638 1.56967 2.24326 2.77254C1.23586 4.18883 0.842946 6.41654 0.593804 9.73008C0.346549 12.5271 0.258289 15.9537 0.16495 19.5774C0.118141 21.3947 0.0700557 23.2615 0 25.1234C0.0211948 25.9728 0.0410548 26.8217 0.0607837 27.6649C0.171218 32.3848 0.277541 36.9291 0.59085 40.4213C0.886275 43.9857 1.19844 45.5062 2.26492 46.9363C3.70463 48.2031 6.04439 49.2525 9.62101 49.5004C13.2253 49.8436 16.6968 49.8879 21.1475 49.9446C22.3585 49.9601 23.6421 49.9764 25.0205 50C26.5376 49.9627 28.0176 49.9354 29.4523 49.9089C33.4998 49.8343 37.187 49.7663 40.3314 49.4984C43.8332 49.2466 46.2892 48.1844 47.5693 46.9264C48.5757 45.6665 49.1784 43.5893 49.462 40.4872C49.7395 37.3675 49.8427 33.2589 49.951 28.947C49.9829 27.6733 50.0154 26.3819 50.0529 25.0929C49.9258 19.5438 49.7929 14.1737 49.462 9.6986ZM11.0518 22.0282L37.0965 12.3815C38.2861 11.8671 39.4343 12.6568 38.9823 14.4045L34.5509 34.4771C34.2407 35.9042 33.3436 36.2485 32.0999 35.5865L25.3435 30.7915C23.7541 32.2735 22.3331 33.6004 22.0938 33.8255L22.0694 33.8484C21.7044 34.191 21.4026 34.4743 20.7418 34.4743C20.056 34.4743 19.9987 34.2793 19.8607 33.8097C19.8225 33.6798 19.7782 33.529 19.7127 33.3554L17.2272 26.0372L10.7279 24.0899C9.2852 23.6653 9.27437 22.7129 11.0518 22.0282ZM32.8838 16.7197L18.2425 25.5908L20.7063 32.8551L21.1987 27.855L33.7346 16.9921C34.285 16.523 33.6144 16.2941 32.8838 16.7197Z" fill="#0A030E"/>
</svg>
